<svg xmlns="http://www.w3.org/2000/svg" xmlns:xlink="http://www.w3.org/1999/xlink" width="500" zoomAndPan="magnify" viewBox="0 0 375 374.999991" height="500" preserveAspectRatio="xMidYMid meet" version="1.0"><defs><g/></defs><rect x="-37.5" width="450" fill="rgb(100%, 100%, 100%)" y="-37.499999" height="449.999989" fill-opacity="1"/><rect x="-37.5" width="450" fill="rgb(94.119263%, 38.038635%, 14.509583%)" y="-37.499999" height="449.999989" fill-opacity="1"/><rect x="-37.5" width="450" fill="rgb(100%, 100%, 100%)" y="-37.499999" height="449.999989" fill-opacity="1"/><rect x="-37.5" width="450" fill="rgb(94.119263%, 38.038635%, 14.509583%)" y="-37.499999" height="449.999989" fill-opacity="1"/><path fill="rgb(100%, 100%, 100%)" d="M 255.035156 153.746094 C 252.578125 156.175781 247.925781 154.753906 247.097656 151.4375 C 245.675781 147.527344 249.96875 142.609375 254 144.535156 C 257.613281 145.925781 257.910156 151.4375 255.035156 153.746094 Z M 255.035156 153.746094 " fill-opacity="1" fill-rule="nonzero"/><path fill="rgb(100%, 100%, 100%)" d="M 239.574219 167.285156 C 235.839844 171.195312 228.730469 171.164062 225.238281 166.957031 C 222.246094 163.878906 221.476562 159.226562 222.394531 155.167969 C 223.546875 149.304688 229.769531 144.445312 235.8125 146.371094 C 244.402344 148.976562 245.882812 161.566406 239.574219 167.285156 Z M 239.574219 167.285156 " fill-opacity="1" fill-rule="nonzero"/><path fill="rgb(100%, 100%, 100%)" d="M 256.160156 159.640625 C 260.632812 161.242188 262.5 166.691406 261.046875 171.015625 C 259.863281 175.605469 254.296875 178.925781 249.851562 176.671875 C 244.757812 174.363281 243.808594 167.136719 246.949219 162.871094 C 248.875 159.90625 252.785156 158.457031 256.160156 159.640625 Z M 256.160156 159.640625 " fill-opacity="1" fill-rule="nonzero"/><path fill="rgb(100%, 100%, 100%)" d="M 115.226562 176.792969 C 119.136719 166.722656 123.519531 156.796875 127.191406 146.636719 C 127.28125 146.253906 127.371094 145.867188 127.519531 145.484375 C 128.347656 142.550781 129.324219 139.589844 131.074219 137.070312 C 133.472656 134.316406 136.820312 131.769531 140.667969 132.125 C 145.882812 131.679688 149.113281 136.683594 151.035156 140.800781 C 153.375 144.773438 155.628906 148.828125 157.878906 152.859375 C 157.996094 152.679688 158.203125 152.355469 158.324219 152.175781 C 161.226562 147.261719 163.269531 141.898438 166.113281 136.953125 C 168.453125 130.96875 172.335938 125.164062 178.230469 122.261719 C 183.855469 119.328125 191.171875 118.378906 196.769531 121.816406 C 199.585938 123.414062 201.332031 126.167969 203.316406 128.65625 C 203.316406 128.65625 203.316406 128.628906 203.316406 128.628906 C 208.292969 134.9375 213.152344 141.367188 217.683594 147.972656 C 215.609375 150.546875 213.0625 152.976562 212.46875 156.382812 C 211.257812 160.648438 212.558594 165.03125 214.574219 168.824219 C 211.699219 170.925781 210.011719 174.808594 211.582031 178.214844 C 212.53125 181.382812 216.527344 183.78125 219.578125 181.828125 C 222.453125 180.257812 223.015625 176.703125 222.71875 173.710938 C 223.695312 173.769531 224.675781 173.828125 225.679688 173.890625 C 225.53125 177.234375 227.015625 180.9375 230.421875 182.0625 C 234.359375 183.753906 238.417969 180.019531 238.714844 176.109375 C 243.511719 181.679688 244.757812 190.089844 241.558594 196.726562 C 236.019531 208.101562 221.089844 212.070312 209.625 208.367188 C 203.671875 206.382812 198.546875 202.148438 195.378906 196.726562 C 191.558594 190.328125 187.738281 183.902344 184.003906 177.445312 L 183.707031 176.941406 C 183.707031 176.941406 183.707031 176.910156 183.707031 176.910156 C 183.679688 176.878906 183.679688 176.851562 183.648438 176.820312 C 183.648438 176.792969 183.648438 176.761719 183.648438 176.734375 C 183.414062 176.851562 182.96875 177.058594 182.730469 177.175781 C 180.421875 181.917969 177.488281 186.359375 174.820312 190.949219 C 172.957031 194.238281 171.652344 198.03125 168.601562 200.457031 C 163.804688 204.84375 155.863281 204.753906 150.917969 200.667969 C 146.917969 197.617188 145.054688 192.726562 143.453125 188.167969 C 141.617188 185.117188 140.253906 181.769531 138.683594 178.570312 C 138.625 178.480469 138.535156 178.363281 138.417969 178.242188 C 137.203125 181.828125 135.25 185.085938 133.796875 188.582031 C 132.109375 192.34375 130.480469 196.726562 126.480469 198.535156 C 122.957031 199.894531 118.808594 198.265625 116.675781 195.246094 C 112.765625 189.972656 112.5 182.597656 115.226562 176.792969 Z M 208.769531 142.492188 C 207.316406 142.105469 205.777344 143.171875 205.332031 144.890625 C 205.09375 145.839844 205.242188 146.785156 205.6875 147.496094 C 204.085938 147.585938 202.546875 148.976562 202.042969 150.960938 C 201.421875 153.332031 202.488281 155.644531 204.382812 156.117188 C 206.28125 156.589844 208.292969 155.078125 208.914062 152.710938 C 209.300781 151.167969 209.003906 149.628906 208.203125 148.621094 C 209.300781 148.445312 210.308594 147.496094 210.632812 146.195312 C 211.046875 144.535156 210.21875 142.847656 208.769531 142.492188 Z M 211.640625 192.789062 C 213.980469 192.789062 215.875 190.890625 215.875 188.550781 C 215.875 186.210938 213.980469 184.316406 211.640625 184.316406 C 209.300781 184.316406 207.40625 186.210938 207.40625 188.550781 C 207.40625 190.890625 209.300781 192.789062 211.640625 192.789062 Z M 201.125 172.230469 C 202.132812 173.179688 203.585938 173.683594 204.976562 173.414062 C 205.035156 173.414062 205.09375 173.386719 205.152344 173.386719 C 206.636719 173.03125 207.703125 171.785156 208.324219 170.453125 C 208.382812 170.335938 208.414062 170.214844 208.472656 170.128906 C 208.472656 170.097656 208.472656 170.097656 208.5 170.066406 C 208.769531 169.328125 208.914062 168.527344 208.945312 167.726562 C 208.976562 166.1875 208.5 164.617188 207.523438 163.402344 C 206.636719 162.308594 205.332031 161.390625 203.878906 161.476562 C 202.191406 161.566406 200.621094 162.722656 199.851562 164.203125 C 198.488281 166.75 199.023438 170.246094 201.125 172.230469 Z M 201.125 172.230469 " fill-opacity="1" fill-rule="nonzero"/><path fill="rgb(100%, 100%, 100%)" d="M 238.773438 134.523438 C 238.773438 134.8125 238.828125 135.09375 238.941406 135.363281 C 239.050781 135.628906 239.210938 135.867188 239.414062 136.074219 C 239.621094 136.277344 239.859375 136.4375 240.125 136.546875 C 240.394531 136.660156 240.675781 136.714844 240.964844 136.714844 C 241.257812 136.714844 241.535156 136.660156 241.804688 136.546875 C 242.074219 136.4375 242.308594 136.277344 242.515625 136.074219 C 242.722656 135.867188 242.878906 135.628906 242.992188 135.363281 C 243.101562 135.09375 243.15625 134.8125 243.15625 134.523438 C 243.15625 134.230469 243.101562 133.953125 242.992188 133.683594 C 242.878906 133.414062 242.722656 133.179688 242.515625 132.972656 C 242.308594 132.765625 242.074219 132.609375 241.804688 132.496094 C 241.535156 132.386719 241.257812 132.332031 240.964844 132.332031 C 240.675781 132.332031 240.394531 132.386719 240.125 132.496094 C 239.859375 132.609375 239.621094 132.765625 239.414062 132.972656 C 239.210938 133.179688 239.050781 133.414062 238.941406 133.683594 C 238.828125 133.953125 238.773438 134.230469 238.773438 134.523438 Z M 238.773438 134.523438 " fill-opacity="1" fill-rule="nonzero"/><path fill="rgb(100%, 100%, 100%)" d="M 222.097656 138.640625 C 222.097656 139.054688 222.175781 139.457031 222.335938 139.84375 C 222.496094 140.226562 222.722656 140.566406 223.015625 140.859375 C 223.3125 141.15625 223.652344 141.382812 224.035156 141.542969 C 224.421875 141.699219 224.820312 141.78125 225.238281 141.78125 C 225.652344 141.78125 226.054688 141.699219 226.4375 141.542969 C 226.824219 141.382812 227.164062 141.15625 227.457031 140.859375 C 227.75 140.566406 227.976562 140.226562 228.136719 139.84375 C 228.296875 139.457031 228.375 139.054688 228.375 138.640625 C 228.375 138.222656 228.296875 137.824219 228.136719 137.4375 C 227.976562 137.054688 227.75 136.714844 227.457031 136.421875 C 227.164062 136.125 226.824219 135.898438 226.4375 135.738281 C 226.054688 135.582031 225.652344 135.5 225.238281 135.5 C 224.820312 135.5 224.421875 135.582031 224.035156 135.738281 C 223.652344 135.898438 223.3125 136.125 223.015625 136.421875 C 222.722656 136.714844 222.496094 137.054688 222.335938 137.4375 C 222.175781 137.824219 222.097656 138.222656 222.097656 138.640625 Z M 222.097656 138.640625 " fill-opacity="1" fill-rule="nonzero"/><g fill="rgb(0%, 0%, 0%)" fill-opacity="1"><g transform="translate(36.329299, 237.349964)"><g><path d="M 5.945312 -3.234375 L 5.945312 -17.636719 L 2.28125 -17.636719 L 2.28125 0 L 11.472656 0 L 11.472656 -3.234375 Z M 5.945312 -3.234375 "/></g></g></g><g fill="rgb(0%, 0%, 0%)" fill-opacity="1"><g transform="translate(49.589729, 237.349964)"><g><path d="M 2.28125 0 L 5.945312 0 L 5.945312 -17.636719 L 2.28125 -17.636719 Z M 2.28125 0 "/></g></g></g><g fill="rgb(0%, 0%, 0%)" fill-opacity="1"><g transform="translate(59.078781, 237.349964)"><g><path d="M 10.351562 -9.203125 L 17.1875 -17.636719 L 12.71875 -17.636719 L 7.175781 -10.703125 L 5.945312 -10.703125 L 5.945312 -17.636719 L 2.28125 -17.636719 L 2.28125 0 L 5.945312 0 L 5.945312 -7.496094 L 7.203125 -7.496094 L 12.71875 0 L 17.394531 0 Z M 10.351562 -9.203125 "/></g></g></g><g fill="rgb(0%, 0%, 0%)" fill-opacity="1"><g transform="translate(78.087831, 237.349964)"><g><path d="M 12.511719 -14.414062 L 12.511719 -17.636719 L 2.28125 -17.636719 L 2.28125 0 L 12.511719 0 L 12.511719 -3.234375 L 5.96875 -3.234375 L 5.96875 -7.226562 L 11.765625 -7.226562 L 11.765625 -10.410156 L 5.96875 -10.410156 L 5.96875 -14.414062 Z M 12.511719 -14.414062 "/></g></g></g><g fill="rgb(0%, 0%, 0%)" fill-opacity="1"><g transform="translate(93.362111, 237.349964)"><g/></g></g><g fill="rgb(0%, 0%, 0%)" fill-opacity="1"><g transform="translate(101.130234, 237.349964)"><g><path d="M 2.28125 0 L 5.945312 0 L 5.945312 -17.636719 L 2.28125 -17.636719 Z M 2.28125 0 "/></g></g></g><g fill="rgb(0%, 0%, 0%)" fill-opacity="1"><g transform="translate(110.619285, 237.349964)"><g><path d="M 12.511719 -17.636719 L 0.488281 -17.636719 L 0.488281 -14.414062 L 4.699219 -14.414062 L 4.699219 0 L 8.324219 0 L 8.324219 -14.414062 L 12.511719 -14.414062 Z M 12.511719 -17.636719 "/></g></g></g><g fill="rgb(0%, 0%, 0%)" fill-opacity="1"><g transform="translate(124.892745, 237.349964)"><g><path d="M 5.054688 -5.445312 L 7.886719 -5.445312 L 7.886719 -6.394531 C 7.886719 -7.128906 8.25 -7.507812 8.945312 -7.789062 C 10.460938 -8.359375 12.058594 -9.691406 12.058594 -12.488281 C 12.058594 -15.84375 9.617188 -17.894531 6.371094 -17.894531 C 3.050781 -17.894531 0.816406 -15.769531 0.816406 -12.730469 C 0.816406 -12.402344 0.84375 -12.132812 0.878906 -11.816406 L 4.027344 -11.414062 C 3.941406 -11.777344 3.882812 -12.15625 3.882812 -12.488281 C 3.882812 -13.976562 4.882812 -14.988281 6.421875 -14.988281 C 7.871094 -14.988281 8.945312 -14.132812 8.945312 -12.402344 C 8.945312 -11.058594 8.386719 -10.3125 7.433594 -9.835938 C 5.933594 -9.09375 5.054688 -8.398438 5.054688 -6.761719 Z M 6.519531 0.242188 C 7.617188 0.242188 8.507812 -0.648438 8.507812 -1.757812 C 8.507812 -2.878906 7.605469 -3.757812 6.519531 -3.757812 C 5.417969 -3.757812 4.503906 -2.878906 4.503906 -1.757812 C 4.503906 -0.648438 5.40625 0.242188 6.519531 0.242188 Z M 6.519531 0.242188 "/></g></g></g><g fill="rgb(0%, 0%, 0%)" fill-opacity="1"><g transform="translate(139.22723, 237.349964)"><g/></g></g><g fill="rgb(0%, 0%, 0%)" fill-opacity="1"><g transform="translate(146.995353, 237.349964)"><g><path d="M 5.945312 -3.234375 L 5.945312 -17.636719 L 2.28125 -17.636719 L 2.28125 0 L 11.472656 0 L 11.472656 -3.234375 Z M 5.945312 -3.234375 "/></g></g></g><g fill="rgb(0%, 0%, 0%)" fill-opacity="1"><g transform="translate(160.255782, 237.349964)"><g><path d="M 2.28125 0 L 5.945312 0 L 5.945312 -17.636719 L 2.28125 -17.636719 Z M 2.28125 0 "/></g></g></g><g fill="rgb(0%, 0%, 0%)" fill-opacity="1"><g transform="translate(169.744833, 237.349964)"><g><path d="M 8.152344 0.242188 C 12 0.242188 14.730469 -1.671875 14.730469 -5.027344 C 14.730469 -8.605469 11.59375 -9.617188 8.921875 -10.421875 C 6.921875 -11.023438 5.1875 -11.4375 5.1875 -12.914062 C 5.1875 -14.269531 6.445312 -14.890625 7.921875 -14.890625 C 9.582031 -14.890625 10.765625 -14.121094 11.316406 -12.425781 L 14.636719 -13.242188 C 13.925781 -16.625 10.800781 -17.882812 7.703125 -17.882812 C 4.164062 -17.882812 1.476562 -16.027344 1.476562 -12.78125 C 1.476562 -9.484375 4.246094 -8.542969 6.835938 -7.738281 C 8.984375 -7.078125 10.9375 -6.566406 10.949219 -4.832031 C 10.960938 -3.40625 9.777344 -2.746094 8.214844 -2.746094 C 6.371094 -2.746094 5.003906 -3.6875 4.492188 -5.710938 L 0.867188 -4.882812 C 1.402344 -1.574219 4.359375 0.242188 8.152344 0.242188 Z M 8.152344 0.242188 "/></g></g></g><g fill="rgb(0%, 0%, 0%)" fill-opacity="1"><g transform="translate(186.849881, 237.349964)"><g><path d="M 12.511719 -17.636719 L 0.488281 -17.636719 L 0.488281 -14.414062 L 4.699219 -14.414062 L 4.699219 0 L 8.324219 0 L 8.324219 -14.414062 L 12.511719 -14.414062 Z M 12.511719 -17.636719 "/></g></g></g><g fill="rgb(0%, 0%, 0%)" fill-opacity="1"><g transform="translate(201.123341, 237.349964)"><g><path d="M 12.511719 -14.414062 L 12.511719 -17.636719 L 2.28125 -17.636719 L 2.28125 0 L 12.511719 0 L 12.511719 -3.234375 L 5.96875 -3.234375 L 5.96875 -7.226562 L 11.765625 -7.226562 L 11.765625 -10.410156 L 5.96875 -10.410156 L 5.96875 -14.414062 Z M 12.511719 -14.414062 "/></g></g></g><g fill="rgb(0%, 0%, 0%)" fill-opacity="1"><g transform="translate(216.39762, 237.349964)"><g><path d="M 14.328125 -17.636719 L 14.328125 -5.101562 L 6.46875 -17.636719 L 2.28125 -17.636719 L 2.28125 0 L 5.933594 0 L 5.933594 -12.609375 L 13.742188 0 L 17.980469 0 L 17.980469 -17.636719 Z M 14.328125 -17.636719 "/></g></g></g><g fill="rgb(0%, 0%, 0%)" fill-opacity="1"><g transform="translate(237.933122, 237.349964)"><g/></g></g><g fill="rgb(0%, 0%, 0%)" fill-opacity="1"><g transform="translate(245.701257, 237.349964)"><g><path d="M 12.511719 -17.636719 L 0.488281 -17.636719 L 0.488281 -14.414062 L 4.699219 -14.414062 L 4.699219 0 L 8.324219 0 L 8.324219 -14.414062 L 12.511719 -14.414062 Z M 12.511719 -17.636719 "/></g></g></g><g fill="rgb(0%, 0%, 0%)" fill-opacity="1"><g transform="translate(259.974717, 237.349964)"><g><path d="M 10.09375 0.242188 C 15.269531 0.242188 19.101562 -3.296875 19.101562 -8.824219 C 19.101562 -14.367188 15.269531 -17.882812 10.09375 -17.882812 C 4.90625 -17.882812 1.074219 -14.367188 1.074219 -8.824219 C 1.074219 -3.296875 4.90625 0.242188 10.09375 0.242188 Z M 10.09375 -3.113281 C 7.054688 -3.113281 4.722656 -5.25 4.722656 -8.824219 C 4.722656 -12.390625 7.054688 -14.511719 10.09375 -14.511719 C 13.132812 -14.511719 15.464844 -12.390625 15.464844 -8.824219 C 15.464844 -5.25 13.132812 -3.113281 10.09375 -3.113281 Z M 10.09375 -3.113281 "/></g></g></g><g fill="rgb(0%, 0%, 0%)" fill-opacity="1"><g transform="translate(281.436988, 237.349964)"><g/></g></g><g fill="rgb(0%, 0%, 0%)" fill-opacity="1"><g transform="translate(289.205123, 237.349964)"><g><path d="M 2.28125 0 L 5.945312 0 L 5.945312 -17.636719 L 2.28125 -17.636719 Z M 2.28125 0 "/></g></g></g><g fill="rgb(0%, 0%, 0%)" fill-opacity="1"><g transform="translate(298.694174, 237.349964)"><g><path d="M 12.511719 -17.636719 L 0.488281 -17.636719 L 0.488281 -14.414062 L 4.699219 -14.414062 L 4.699219 0 L 8.324219 0 L 8.324219 -14.414062 L 12.511719 -14.414062 Z M 12.511719 -17.636719 "/></g></g></g><g fill="rgb(0%, 0%, 0%)" fill-opacity="1"><g transform="translate(312.967634, 237.349964)"><g><path d="M 2.648438 -5.625 L 5.480469 -5.625 L 5.835938 -17.636719 L 2.292969 -17.636719 Z M 4.066406 0.242188 C 5.1875 0.242188 6.089844 -0.660156 6.089844 -1.757812 C 6.089844 -2.878906 5.1875 -3.785156 4.066406 -3.785156 C 2.964844 -3.785156 2.0625 -2.878906 2.0625 -1.757812 C 2.0625 -0.660156 2.964844 0.242188 4.066406 0.242188 Z M 4.066406 0.242188 "/></g></g></g><g fill="rgb(100%, 100%, 100%)" fill-opacity="1"><g transform="translate(145.926228, 253.999978)"><g><path d="M 0.945312 0 L 2.054688 0 L 2.054688 -5.421875 L 4.066406 -2.429688 L 4.695312 -2.429688 L 6.707031 -5.421875 L 6.707031 0 L 7.804688 0 L 7.804688 -7.695312 L 6.925781 -7.695312 L 4.386719 -3.957031 L 1.847656 -7.695312 L 0.945312 -7.695312 Z M 0.945312 0 "/></g></g></g><g fill="rgb(100%, 100%, 100%)" fill-opacity="1"><g transform="translate(157.613037, 253.999978)"><g><path d="M 3.695312 0.078125 C 5.015625 0.078125 6.53125 -0.738281 6.53125 -2.296875 L 6.53125 -7.773438 L 5.410156 -7.773438 L 5.410156 -2.308594 C 5.410156 -1.460938 4.496094 -1.035156 3.695312 -1.035156 C 2.878906 -1.035156 1.96875 -1.453125 1.96875 -2.296875 L 1.96875 -7.773438 L 0.847656 -7.773438 L 0.847656 -2.308594 C 0.847656 -0.738281 2.34375 0.078125 3.695312 0.078125 Z M 3.695312 0.078125 "/></g></g></g><g fill="rgb(100%, 100%, 100%)" fill-opacity="1"><g transform="translate(167.936808, 253.999978)"><g><path d="M 4.792969 -5.707031 L 5.894531 -5.75 C 5.695312 -7.15625 4.464844 -7.773438 3.277344 -7.773438 C 2.386719 -7.773438 1.460938 -7.421875 0.945312 -6.75 C 0.660156 -6.378906 0.515625 -5.9375 0.515625 -5.476562 C 0.515625 -5.421875 0.527344 -5.355469 0.527344 -5.289062 L 0.527344 -5.300781 C 0.648438 -3.695312 2.054688 -3.429688 3.253906 -3.308594 C 4.023438 -3.234375 4.816406 -3.132812 4.949219 -2.550781 C 4.96875 -2.453125 4.980469 -2.363281 4.980469 -2.285156 C 4.980469 -1.496094 4.078125 -1.035156 3.253906 -1.035156 C 2.539062 -1.035156 1.671875 -1.40625 1.59375 -2.121094 L 1.59375 -2.078125 L 1.582031 -2.242188 L 0.460938 -2.222656 L 0.472656 -2.011719 C 0.617188 -0.636719 2.054688 0.0664062 3.242188 0.0664062 C 4.628906 0.0664062 6.101562 -0.792969 6.101562 -2.277344 C 6.101562 -2.429688 6.082031 -2.617188 6.046875 -2.78125 C 5.75 -4.011719 4.441406 -4.289062 3.386719 -4.421875 C 2.527344 -4.496094 1.636719 -4.605469 1.636719 -5.496094 C 1.636719 -5.71875 1.691406 -5.9375 1.824219 -6.101562 C 2.144531 -6.507812 2.726562 -6.683594 3.253906 -6.683594 C 3.914062 -6.683594 4.640625 -6.386719 4.792969 -5.707031 Z M 4.792969 -5.707031 "/></g></g></g><g fill="rgb(100%, 100%, 100%)" fill-opacity="1"><g transform="translate(177.425173, 253.999978)"><g><path d="M 3.484375 -6.738281 L 4.914062 -6.738281 L 4.914062 -7.761719 L 0.945312 -7.761719 L 0.945312 -6.738281 L 2.375 -6.738281 L 2.375 -1.035156 L 0.945312 -1.035156 L 0.945312 0 L 4.914062 0 L 4.914062 -1.035156 L 3.484375 -1.035156 Z M 3.484375 -6.738281 "/></g></g></g><g fill="rgb(100%, 100%, 100%)" fill-opacity="1"><g transform="translate(186.221021, 253.999978)"><g><path d="M 0.429688 -3.828125 C 0.429688 -2.757812 0.890625 -1.78125 1.550781 -1.078125 C 2.222656 -0.375 3.1875 0.0546875 4.234375 0.0546875 C 6.023438 0.0546875 7.433594 -1.132812 7.871094 -2.878906 L 6.785156 -2.878906 C 6.386719 -1.714844 5.398438 -1.042969 4.234375 -1.042969 C 3.496094 -1.042969 2.757812 -1.351562 2.277344 -1.859375 C 1.792969 -2.363281 1.507812 -3.054688 1.507812 -3.828125 C 1.507812 -4.617188 1.804688 -5.300781 2.285156 -5.804688 C 2.769531 -6.3125 3.496094 -6.664062 4.234375 -6.664062 C 5.367188 -6.664062 6.3125 -6.046875 6.71875 -4.894531 L 7.816406 -4.894531 C 7.378906 -6.628906 5.992188 -7.761719 4.234375 -7.761719 C 3.1875 -7.761719 2.1875 -7.277344 1.515625 -6.585938 C 0.859375 -5.882812 0.429688 -4.914062 0.429688 -3.828125 Z M 0.429688 -3.828125 "/></g></g></g><g fill="rgb(100%, 100%, 100%)" fill-opacity="1"><g transform="translate(203.142197, 253.999978)"><g><path d="M 1.902344 -1.945312 L 5.023438 -1.945312 L 5.761719 0 L 6.949219 0 L 3.859375 -7.796875 L 3.046875 -7.796875 L -0.0429688 0 L 1.15625 0 Z M 4.617188 -2.992188 L 2.308594 -2.992188 L 3.464844 -6.023438 Z M 4.617188 -2.992188 "/></g></g></g><g fill="rgb(100%, 100%, 100%)" fill-opacity="1"><g transform="translate(213.059257, 253.999978)"><g><path d="M 3.761719 -7.695312 L 0.945312 -7.695312 L 0.945312 0 L 2.066406 0 L 2.066406 -2.5625 L 3.761719 -2.5625 C 5.421875 -2.5625 6.257812 -3.835938 6.257812 -5.125 C 6.257812 -6.410156 5.421875 -7.695312 3.761719 -7.695312 Z M 3.761719 -3.660156 L 2.066406 -3.660156 L 2.066406 -6.574219 L 3.761719 -6.574219 C 4.695312 -6.574219 5.15625 -5.847656 5.15625 -5.113281 C 5.15625 -4.386719 4.695312 -3.660156 3.761719 -3.660156 Z M 3.761719 -3.660156 "/></g></g></g><g fill="rgb(100%, 100%, 100%)" fill-opacity="1"><g transform="translate(222.536624, 253.999978)"><g><path d="M 3.761719 -7.695312 L 0.945312 -7.695312 L 0.945312 0 L 2.066406 0 L 2.066406 -2.5625 L 3.761719 -2.5625 C 5.421875 -2.5625 6.257812 -3.835938 6.257812 -5.125 C 6.257812 -6.410156 5.421875 -7.695312 3.761719 -7.695312 Z M 3.761719 -3.660156 L 2.066406 -3.660156 L 2.066406 -6.574219 L 3.761719 -6.574219 C 4.695312 -6.574219 5.15625 -5.847656 5.15625 -5.113281 C 5.15625 -4.386719 4.695312 -3.660156 3.761719 -3.660156 Z M 3.761719 -3.660156 "/></g></g></g></svg>